<svg xmlns="http://www.w3.org/2000/svg" xmlns:xlink="http://www.w3.org/1999/xlink" width="500" zoomAndPan="magnify" viewBox="0 0 375 374.999991" height="500" preserveAspectRatio="xMidYMid meet" version="1.2"><defs/><g id="b8be0e63bc"><g style="fill:#ffffff;fill-opacity:1;"><g transform="translate(15.261399, 286.644544)"><path style="stroke:none" d="M 69.125 2.375 C 52.113281 2.375 38.414062 -2.765625 28.03125 -13.046875 C 17.644531 -23.335938 12.453125 -36.988281 12.453125 -54 L 12.453125 -153.6875 C 12.453125 -170.695312 17.644531 -184.34375 28.03125 -194.625 C 38.414062 -204.914062 52.113281 -210.0625 69.125 -210.0625 C 86.132812 -210.0625 99.878906 -204.914062 110.359375 -194.625 C 120.847656 -184.34375 126.09375 -170.695312 126.09375 -153.6875 L 126.09375 -54 C 126.09375 -36.988281 120.847656 -23.335938 110.359375 -13.046875 C 99.878906 -2.765625 86.132812 2.375 69.125 2.375 Z M 69.125 -27.296875 C 75.851562 -27.296875 81.289062 -29.617188 85.4375 -34.265625 C 89.59375 -38.910156 91.671875 -44.992188 91.671875 -52.515625 L 91.671875 -155.171875 C 91.671875 -162.679688 89.59375 -168.757812 85.4375 -173.40625 C 81.289062 -178.0625 75.851562 -180.390625 69.125 -180.390625 C 62.40625 -180.390625 57.015625 -178.0625 52.953125 -173.40625 C 48.898438 -168.757812 46.875 -162.679688 46.875 -155.171875 L 46.875 -52.515625 C 46.875 -44.992188 48.898438 -38.910156 52.953125 -34.265625 C 57.015625 -29.617188 62.40625 -27.296875 69.125 -27.296875 Z M 69.125 -27.296875 "/></g></g><g style="fill:#ffffff;fill-opacity:1;"><g transform="translate(224.095557, 286.644544)"><path style="stroke:none" d="M 75.0625 -207.984375 C 85.539062 -207.984375 94.785156 -205.410156 102.796875 -200.265625 C 110.804688 -195.117188 117.035156 -187.894531 121.484375 -178.59375 C 125.941406 -169.300781 128.171875 -158.722656 128.171875 -146.859375 C 128.171875 -129.054688 123.472656 -114.710938 114.078125 -103.828125 C 104.679688 -92.953125 92.269531 -87.515625 76.84375 -87.515625 L 51.625 -87.515625 C 50.632812 -87.515625 50.140625 -87.023438 50.140625 -86.046875 L 50.140625 -3.5625 C 50.140625 -2.570312 49.789062 -1.726562 49.09375 -1.03125 C 48.40625 -0.34375 47.566406 0 46.578125 0 L 19.28125 0 C 18.289062 0 17.445312 -0.34375 16.75 -1.03125 C 16.0625 -1.726562 15.71875 -2.570312 15.71875 -3.5625 L 15.71875 -204.421875 C 15.71875 -205.410156 16.0625 -206.25 16.75 -206.9375 C 17.445312 -207.632812 18.289062 -207.984375 19.28125 -207.984375 Z M 69.421875 -114.515625 C 76.742188 -114.515625 82.628906 -117.332031 87.078125 -122.96875 C 91.523438 -128.613281 93.75 -136.28125 93.75 -145.96875 C 93.75 -155.851562 91.523438 -163.710938 87.078125 -169.546875 C 82.628906 -175.390625 76.742188 -178.3125 69.421875 -178.3125 L 51.625 -178.3125 C 50.632812 -178.3125 50.140625 -177.816406 50.140625 -176.828125 L 50.140625 -116 C 50.140625 -115.007812 50.632812 -114.515625 51.625 -114.515625 Z M 69.421875 -114.515625 "/></g></g></g></svg>